<svg width="317" height="317" viewBox="0 0 317 317" fill="none" xmlns="http://www.w3.org/2000/svg">
<g filter="url(#filter0_f_38_165)">
<circle cx="158.5" cy="158.5" r="88.5" fill="#EC75FF"/>
</g>
<path d="M159.001 235.435C198.765 235.435 231 203.2 231 163.436C231 123.672 198.765 91.437 159.001 91.437C119.237 91.437 87.0015 123.672 87.0015 163.436C87.0015 203.2 119.237 235.435 159.001 235.435Z" fill="#E88102"/>
<path d="M158.999 214.888C191.524 214.888 217.89 188.522 217.89 155.997C217.89 123.473 191.524 97.1072 158.999 97.1072C126.475 97.1072 100.109 123.473 100.109 155.997C100.109 188.522 126.475 214.888 158.999 214.888Z" fill="#F39E09"/>
<path d="M158.999 107.204C189.247 107.204 214.154 130.012 217.496 159.364C217.748 157.155 217.89 154.911 217.89 152.634C217.89 120.11 191.524 93.7438 158.999 93.7438C126.475 93.7438 100.109 120.11 100.109 152.634C100.109 154.911 100.252 157.155 100.503 159.364C103.844 130.012 128.752 107.204 158.999 107.204Z" fill="#E88102"/>
<path d="M158.999 84C119.235 84 87 116.235 87 155.999C87 195.764 119.235 227.998 158.999 227.998C198.764 227.998 230.998 195.764 230.998 155.999C230.998 116.235 198.764 84 158.999 84ZM158.999 211.755C128.206 211.755 103.244 186.792 103.244 155.999C103.244 125.206 128.206 100.242 158.999 100.242C189.792 100.242 214.755 125.206 214.755 155.999C214.755 186.792 189.792 211.755 158.999 211.755Z" fill="#FEEC9A"/>
<path d="M158.999 84C119.235 84 87 116.235 87 155.999C87 195.764 119.235 227.998 158.999 227.998C198.764 227.998 230.998 195.764 230.998 155.999C230.998 116.235 198.764 84 158.999 84ZM158.999 211.755C128.206 211.755 103.244 186.792 103.244 155.999C103.244 125.206 128.206 100.242 158.999 100.242C189.792 100.242 214.755 125.206 214.755 155.999C214.755 186.792 189.792 211.755 158.999 211.755Z" fill="#FDD835"/>
<path d="M223.647 124.293L211.299 136.641C213.387 142.281 214.575 148.354 214.723 154.683L229.232 140.175C227.983 134.61 226.1 129.288 223.647 124.293Z" fill="#FEEC9A"/>
<path d="M157.683 211.723C151.353 211.576 145.281 210.387 139.641 208.299L127.292 220.647C132.288 223.102 137.61 224.985 143.174 226.233L157.683 211.723Z" fill="#FEEC9A"/>
<path d="M108.919 180.521L96.9421 192.498C102.306 201.597 109.605 209.414 118.286 215.377L130.022 203.641C120.966 198.123 113.615 190.092 108.919 180.521Z" fill="#FEEC9A"/>
<path d="M195.498 93.9423L183.521 105.919C193.092 110.615 201.123 117.966 206.642 127.02L218.378 115.284C212.413 106.605 204.597 99.3064 195.498 93.9423Z" fill="#FEEC9A"/>
<path d="M167.178 100.846C169.603 101.203 171.972 101.724 174.284 102.382L187.013 89.6535C184.953 88.7836 182.843 88.0113 180.693 87.3333L167.178 100.846Z" fill="#FEEC9A"/>
<path d="M92.6535 184.012L105.382 171.284C104.724 168.972 104.203 166.603 103.846 164.178L90.3333 177.691C91.0113 179.843 91.7836 181.953 92.6535 184.012Z" fill="#FEEC9A"/>
<path d="M158.556 197.89C150.63 197.89 143.156 193.04 140.213 185.194C139.234 182.582 140.556 179.673 143.168 178.696C145.774 177.71 148.686 179.037 149.666 181.648C151.498 186.538 156.968 189.033 161.861 187.191C166.749 185.357 169.237 179.887 167.403 174.996C166.353 172.196 164.094 170.103 161.203 169.255L160.887 169.15L153.78 166.547C147.896 164.764 143.295 160.46 141.14 154.714C139.304 149.819 139.486 144.504 141.648 139.746C143.81 134.987 147.697 131.356 152.592 129.521C162.691 125.735 173.994 130.868 177.783 140.972C178.763 143.582 177.44 146.493 174.83 147.472C172.227 148.446 169.31 147.13 168.332 144.519C166.498 139.628 161.028 137.141 156.135 138.975C153.766 139.863 151.885 141.622 150.838 143.923C149.792 146.227 149.704 148.799 150.593 151.17C151.643 153.972 153.902 156.063 156.793 156.913L157.108 157.017L164.217 159.62C170.099 161.404 174.699 165.708 176.856 171.454C180.644 181.558 175.505 192.859 165.405 196.647C163.15 197.488 160.835 197.89 158.556 197.89Z" fill="#E88102"/>
<path d="M158.999 138.386C156.211 138.386 153.951 136.126 153.951 133.338V125.223C153.951 122.435 156.211 120.175 158.999 120.175C161.787 120.175 164.047 122.435 164.047 125.223V133.338C164.047 136.125 161.787 138.386 158.999 138.386Z" fill="#E88102"/>
<path d="M158.999 205.987C156.211 205.987 153.951 203.727 153.951 200.939V192.824C153.951 190.036 156.211 187.776 158.999 187.776C161.787 187.776 164.047 190.036 164.047 192.824V200.939C164.047 203.727 161.787 205.987 158.999 205.987Z" fill="#E88102"/>
<path d="M158.556 191.16C150.63 191.16 143.156 186.309 140.213 178.463C139.234 175.852 140.556 172.943 143.168 171.965C145.774 170.979 148.686 172.307 149.666 174.918C151.498 179.808 156.968 182.303 161.861 180.461C166.749 178.626 169.237 173.156 167.403 168.265C166.353 165.465 164.094 163.372 161.203 162.524L160.887 162.42L153.78 159.817C147.896 158.033 143.295 153.729 141.14 147.983C139.304 143.089 139.486 137.774 141.648 133.015C143.81 128.257 147.697 124.626 152.592 122.79C162.691 119.004 173.994 124.138 177.783 134.242C178.763 136.851 177.44 139.762 174.83 140.742C172.227 141.716 169.31 140.4 168.332 137.789C166.498 132.897 161.028 130.411 156.135 132.245C153.766 133.133 151.885 134.891 150.838 137.193C149.792 139.496 149.704 142.069 150.593 144.44C151.643 147.241 153.902 149.333 156.793 150.183L157.108 150.287L164.217 152.89C170.099 154.673 174.699 158.977 176.856 164.723C180.644 174.827 175.505 186.129 165.405 189.917C163.15 190.758 160.835 191.16 158.556 191.16Z" fill="#FDD835"/>
<path d="M158.999 131.656C156.211 131.656 153.951 129.396 153.951 126.608V118.493C153.951 115.705 156.211 113.445 158.999 113.445C161.787 113.445 164.047 115.705 164.047 118.493V126.608C164.047 129.394 161.787 131.656 158.999 131.656Z" fill="#FDD835"/>
<path d="M158.999 199.257C156.211 199.257 153.951 196.997 153.951 194.209V186.094C153.951 183.306 156.211 181.046 158.999 181.046C161.787 181.046 164.047 183.306 164.047 186.094V194.209C164.047 196.997 161.787 199.257 158.999 199.257Z" fill="#FDD835"/>
<defs>
<filter id="filter0_f_38_165" x="0" y="0" width="317" height="317" filterUnits="userSpaceOnUse" color-interpolation-filters="sRGB">
<feFlood flood-opacity="0" result="BackgroundImageFix"/>
<feBlend mode="normal" in="SourceGraphic" in2="BackgroundImageFix" result="shape"/>
<feGaussianBlur stdDeviation="35" result="effect1_foregroundBlur_38_165"/>
</filter>
</defs>
</svg>
